<svg width="18" height="18" viewBox="0 0 18 18" fill="none" xmlns="http://www.w3.org/2000/svg">
<path d="M3.5998 2.7C2.60699 2.7 1.7998 3.50718 1.7998 4.5V12.6C1.7998 13.5928 2.60699 14.4 3.5998 14.4H14.3998C15.3926 14.4 16.1998 13.5928 16.1998 12.6V7.2C16.1998 6.20718 15.3926 5.4 14.3998 5.4H3.8248C3.45074 5.4 3.1498 5.09906 3.1498 4.725C3.1498 4.35093 3.45074 4.05 3.8248 4.05H14.6248C14.9989 4.05 15.2998 3.74906 15.2998 3.375C15.2998 3.00093 14.9989 2.7 14.6248 2.7H3.5998ZM13.4998 9C13.9976 9 14.3998 9.40218 14.3998 9.9C14.3998 10.3978 13.9976 10.8 13.4998 10.8C13.002 10.8 12.5998 10.3978 12.5998 9.9C12.5998 9.40218 13.002 9 13.4998 9Z" fill="#787878"/>
</svg>
