<svg width="18" height="16" viewBox="0 0 18 16" fill="none" xmlns="http://www.w3.org/2000/svg">
<path d="M0.534786 9.50363C0.184855 8.92068 0 8.25355 0 7.57363C0 6.89371 0.184855 6.22659 0.534786 5.64363C0.642328 5.46415 0.78623 5.30915 0.957244 5.1886C1.12826 5.06804 1.3226 4.9846 1.52779 4.94363L3.22079 4.60463C3.32175 4.58464 3.41281 4.53064 3.47879 4.45163L5.54679 1.96863C6.72879 0.548631 7.32079 -0.16037 7.84779 0.0306305C8.37479 0.22163 8.37679 1.14563 8.37679 2.99363V12.1556C8.37679 14.0026 8.37679 14.9256 7.84879 15.1176C7.32179 15.3076 6.72979 14.5986 5.54779 13.1796L3.47679 10.6956C3.41107 10.6168 3.32039 10.5628 3.21979 10.5426L1.52679 10.2036C1.3216 10.1627 1.12726 10.0792 0.956244 9.95866C0.785229 9.83811 0.642328 9.68311 0.534786 9.50363Z" fill="#808080"/>
<path d="M10.9126 4.03763C11.8456 4.97063 12.372 6.2346 12.3771 7.55407C12.3822 8.87354 11.8654 10.1415 10.9396 11.0816M15.0336 1.91663C16.5264 3.4093 17.3688 5.43152 17.377 7.54257C17.3852 9.65362 16.5587 11.6824 15.0776 13.1866" stroke="#808080" stroke-width="2" stroke-linecap="round"/>
</svg>
