<svg width="17" height="17" viewBox="0 0 17 17" fill="none" xmlns="http://www.w3.org/2000/svg">
<path d="M7.92625 0.963336L2.96792 3.16625C2.45792 3.39292 2.125 3.90292 2.125 4.4625V7.79167C2.125 11.7229 4.845 15.3992 8.5 16.2917C12.155 15.3992 14.875 11.7229 14.875 7.79167V4.4625C14.875 3.90292 14.5421 3.39292 14.0321 3.16625L9.07375 0.963336C8.7125 0.800419 8.2875 0.800419 7.92625 0.963336ZM6.58042 11.5388L4.74583 9.70417C4.68025 9.63859 4.62823 9.56074 4.59274 9.47505C4.55725 9.38937 4.53899 9.29754 4.53899 9.20479C4.53899 9.11205 4.55725 9.02022 4.59274 8.93454C4.62823 8.84885 4.68025 8.771 4.74583 8.70542C4.81141 8.63984 4.88927 8.58782 4.97495 8.55233C5.06063 8.51684 5.15247 8.49857 5.24521 8.49857C5.33795 8.49857 5.42979 8.51684 5.51547 8.55233C5.60115 8.58782 5.679 8.63984 5.74458 8.70542L7.08333 10.0371L11.2483 5.87209C11.3139 5.80651 11.3918 5.75449 11.4774 5.719C11.5631 5.68351 11.655 5.66524 11.7477 5.66524C11.8405 5.66524 11.9323 5.68351 12.018 5.719C12.1037 5.75449 12.1815 5.80651 12.2471 5.87209C12.3127 5.93766 12.3647 6.01552 12.4002 6.1012C12.4357 6.18688 12.4539 6.27872 12.4539 6.37146C12.4539 6.4642 12.4357 6.55604 12.4002 6.64172C12.3647 6.7274 12.3127 6.80526 12.2471 6.87084L7.57917 11.5388C7.51364 11.6044 7.4358 11.6565 7.35011 11.6921C7.26442 11.7276 7.17256 11.7459 7.07979 11.7459C6.98702 11.7459 6.89516 11.7276 6.80947 11.6921C6.72378 11.6565 6.64595 11.6044 6.58042 11.5388Z" fill="#383838"/>
</svg>
