<svg width="64" height="71" viewBox="0 0 64 71" fill="none" xmlns="http://www.w3.org/2000/svg">
<g clip-path="url(#clip0_31_554)">
<path d="M61.5799 26.9042C59.8284 22.6601 57.136 18.7244 53.4975 15.4357C47.1666 9.71261 39.1671 6.99345 31.2505 7.18242C26.7013 7.29135 22.1798 8.35697 18.0175 10.3714C14.8264 11.916 11.8485 14.0171 9.22979 16.6654C8.91265 16.9869 8.59683 17.311 8.29022 17.647C-3.58074 30.7074 -2.58722 50.8911 10.5075 62.7297C23.6036 74.5683 43.8426 73.5774 55.7135 60.5184C60.1179 55.6732 62.7471 49.8478 63.6485 43.8307C63.917 42.042 64.0288 40.2362 63.992 38.4344C63.9117 34.4987 63.0972 30.5853 61.5773 26.9042H61.5799Z" fill="#A81C1C"/>
<path d="M17.453 48.5223C8.56661 40.4895 6.10846 28.0249 10.3931 17.5577C10.1049 17.8491 9.81805 18.1444 9.53907 18.4514C-1.25677 30.3268 -0.354047 48.6837 11.5551 59.4488C23.4642 70.2152 41.87 69.3136 52.6659 57.437C56.6702 53.0302 59.0626 47.7323 59.8824 42.2612C58.9652 43.7821 57.8901 45.2388 56.6492 46.6037C46.356 57.9278 28.8068 58.7861 17.453 48.521V48.5223Z" fill="#1E1E1E"/>
<path d="M59.31 38.3846C50.138 48.4751 34.5009 49.2402 24.384 40.0932C16.2753 32.7625 14.179 21.294 18.3847 11.8334C15.4831 13.2389 12.7736 15.1483 10.3931 17.5565C6.10979 28.0237 8.56793 40.4882 17.4531 48.521C28.8082 58.7861 46.3573 57.9265 56.6492 46.6037C57.8901 45.2389 58.9639 43.7822 59.8824 42.2612C60.1259 40.6339 60.2285 38.9922 60.1943 37.3544C59.9101 37.7035 59.6166 38.0473 59.31 38.3846Z" fill="#494949"/>
<path d="M34.0099 17.8845C31.9834 16.0511 31.1557 12.6666 31.1557 12.6666H28.1501C25.3801 18.9816 26.7921 26.6141 32.1966 31.4987C38.967 37.6194 49.4299 37.1076 55.5674 30.3556C56.5478 29.2769 57.3571 28.1036 57.9993 26.8687C56.4057 23.0092 53.958 19.4304 50.6498 16.4396C45.8401 12.0918 39.9724 9.65745 33.9731 9.07214L34.0099 10.4553C34.0099 10.4553 36.0365 19.7191 34.0099 17.8858V17.8845Z" fill="#808080"/>
<path d="M57.9994 26.8688C57.3572 28.1037 56.5479 29.2769 55.5676 30.3556C49.4301 37.1076 38.9672 37.6194 32.1968 31.4987C26.7923 26.6129 25.3816 18.9816 28.1503 12.6667H31.1559C31.1559 12.6667 31.9836 16.0512 34.0101 17.8845C36.0366 19.7179 34.0101 10.4541 34.0101 10.4541L33.9733 9.07087C32.7902 8.95539 31.6033 8.9042 30.4176 8.93308C29.9307 8.94489 29.4439 8.97113 28.957 9.00657C25.3158 9.27428 21.722 10.2165 18.3835 11.8333C14.1778 21.294 16.2741 32.7638 24.3828 40.0932C34.5009 49.2402 50.1381 48.4751 59.3088 38.3845C59.6154 38.0472 59.9088 37.7034 60.1931 37.3543C60.1194 33.7756 59.3798 30.2165 57.9981 26.8675L57.9994 26.8688Z" fill="#5B5B5B"/>
<path d="M54.7753 31.1692L53.741 27.958C53.741 27.958 48.2114 27.4448 45.5704 26.454C42.9293 25.4632 49.13 22.3503 49.13 22.3503L56.4425 23.6692C56.4425 23.6692 58.0901 26.8267 58.6007 28.454C59.1112 30.0813 54.7753 31.3832 54.7753 31.3832V31.1706V31.1692Z" fill="#5B5B5B"/>
<path d="M53.3597 5.06826C47.8288 1.00527 41.9203 0.0341406 38.3844 1.12075C37.6212 1.35566 37.0317 1.8596 36.6514 2.56039L36.6435 2.57614C36.6316 2.59976 36.6198 2.62338 36.6079 2.647L32.3641 11.2966C32.3641 11.2966 31.2363 15.3767 38.7687 21.4895C46.301 27.6024 54.5335 25.546 54.5335 25.546L59.2984 17.4331C61.3052 15.5171 60.2683 10.1418 53.3597 5.06695V5.06826Z" fill="#A81C1C"/>
<path d="M59.2984 18.8045L54.5335 26.9173C54.5335 26.9173 46.301 28.9738 38.7687 22.8609C31.2363 16.748 32.3641 12.668 32.3641 12.668L36.6514 3.93176L59.2997 18.8058L59.2984 18.8045Z" fill="#353535"/>
<path d="M43.2007 15.6378C36.1066 10.664 35.3696 4.50127 37.9923 2.64563C34.8735 4.1102 35.3025 10.6601 42.7651 15.891C50.0488 20.9973 56.4534 20.7729 58.8734 19.143C56.1823 20.5275 50.0856 20.4645 43.2007 15.6378Z" fill="#808080"/>
<path d="M53.3597 6.43837C47.8288 2.37538 41.9203 1.40556 38.3844 2.49217C38.2476 2.53417 38.1186 2.58797 37.9923 2.64703C35.3696 4.50267 36.1066 10.6654 43.2007 15.6392C50.0856 20.4659 56.1823 20.5276 58.8734 19.1444C59.0326 19.0368 59.1747 18.9239 59.2984 18.8058C61.3052 16.8898 60.2683 11.5145 53.3597 6.43968V6.43837Z" fill="#494949"/>
<path d="M51.4894 8.1326C47.9575 5.53811 44.1834 4.91868 41.9266 5.61291C41.2041 5.8347 40.7238 6.43706 40.5659 7.26514C40.6541 7.22183 40.7462 7.18246 40.8449 7.15228C43.103 6.45805 46.8758 7.07879 50.4077 9.67197C53.8054 12.168 54.9727 14.773 54.7476 16.4003C54.9595 16.2901 55.1398 16.1654 55.2819 16.0302C56.5636 14.8058 55.9017 11.3741 51.4894 8.1326Z" fill="#686868"/>
<path d="M50.4079 9.6719C46.876 7.07741 43.1019 6.45799 40.8451 7.15222C40.7477 7.1824 40.6556 7.22177 40.5661 7.26508C40.2319 9.02361 41.3544 11.8071 44.7245 14.1706C49.1341 17.2625 53.0385 17.2926 54.7492 16.4002C54.9742 14.773 53.807 12.168 50.4093 9.6719H50.4079Z" fill="#1E1E1E"/>
<path d="M43.6491 10.0026C43.6491 10.0026 45.3032 13.3832 47.9219 14.189C50.5406 14.9948 51.3578 14.5341 51.3578 14.5341C51.3578 14.5341 52.0302 13.0381 51.8763 12.6641C51.8763 12.6641 53.0409 12.5656 53.562 12.0578C54.0844 11.5499 54.2844 11.1286 54.2844 11.1286C54.2844 11.1286 55.3806 11.5709 56.7873 10.9449C58.194 10.3189 58.0348 9.47114 58.0348 9.47114C58.0348 9.47114 59.9179 9.67849 61.3786 8.72967C62.8392 7.78086 62.8248 5.70737 61.9642 4.84647C61.1035 3.98558 59.5086 4.23361 59.5086 4.23361C59.5086 4.23361 60.4561 2.48427 59.9468 1.0302C59.4376 -0.423867 56.5728 -0.629904 56.8149 2.33204C56.8149 2.33204 54.7897 1.56826 53.8317 2.33597C52.8724 3.10369 52.8645 3.82941 52.8645 3.82941C52.8645 3.82941 51.0446 3.15356 49.9682 4.12994C48.8918 5.10632 49.1971 5.85566 49.1971 5.85566C49.1971 5.85566 47.4692 5.41471 46.7547 6.19424C46.0402 6.97377 45.8572 8.26904 45.8572 8.26904C45.8572 8.26904 43.6649 8.54726 43.6465 10L43.6491 10.0026Z" fill="#CF8B38"/>
<path d="M44.3018 9.83469C44.3018 9.83469 46.3178 12.5171 48.1245 13.067C49.9313 13.6168 50.863 12.2546 49.9247 11.3255C48.9865 10.3951 45.9243 7.83338 44.3018 9.83469Z" fill="#E5BB67"/>
<path d="M46.5957 8.28735C46.5957 8.28735 48.5446 7.74273 50.6645 10.0223C51.5015 10.9225 52.3187 10.3005 52.2805 9.19811C52.2252 7.60756 47.4103 4.5367 46.5957 8.28735Z" fill="#E5BB67"/>
<path d="M49.8379 5.43039C49.8379 5.43039 52.0381 5.23616 53.9857 8.36084C54.8437 9.73748 56.2951 8.59049 56.257 7.48813C56.2017 5.89758 50.8893 2.55244 49.8379 5.43039Z" fill="#E5BB67"/>
<path d="M53.4712 3.59574C53.4712 3.59574 56.0859 3.79653 57.7335 6.62592C58.3217 7.63642 59.9877 7.31096 59.8745 6.05506C59.7324 4.46844 54.6463 1.1771 53.4712 3.59443V3.59574Z" fill="#E5BB67"/>
<path d="M47.9234 14.189C50.4368 15.3045 51.3593 14.5342 51.3593 14.5342C51.3593 14.5342 52.0317 13.0381 51.8777 12.6641C51.8777 12.6641 53.0423 12.5657 53.5634 12.0578C54.0859 11.5499 54.2859 11.1286 54.2859 11.1286C54.2859 11.1286 55.382 11.5709 56.7888 10.9449C58.1955 10.3189 58.0363 9.47116 58.0363 9.47116C58.0363 9.47116 59.9194 9.67851 61.38 8.72969C62.8407 7.78087 62.8262 5.70738 61.9656 4.84649C61.7696 4.65095 61.5366 4.51447 61.2919 4.41736C62.7525 5.3583 61.5564 7.87143 59.7522 8.28087C58.7548 8.5066 57.2375 8.37011 57.2375 8.37011C57.2375 8.37011 57.2572 9.56696 56.0479 10.0657C54.8399 10.5643 53.1252 8.43573 53.1252 8.43573C53.1252 8.43573 53.67 10.3176 52.945 11.2625C52.2199 12.2087 50.6197 11.2349 50.6197 11.2349C50.6197 11.2349 51.154 13.1352 51.025 13.4449C50.8961 13.7533 49.971 14.2139 47.5181 13.4567C45.0652 12.6995 43.6769 9.74151 43.6756 9.74019C43.6585 9.82287 43.6479 9.90948 43.6479 10C43.6479 10 43.8598 12.3846 47.9208 14.1864L47.9234 14.189Z" fill="#B7742D"/>
<path d="M58.8284 2.58002C59.4271 2.17057 59.1863 0.633826 58.3389 0.473721C57.4914 0.313616 56.9729 1.76112 57.2506 2.25981C57.527 2.75718 58.3797 2.88711 58.8284 2.58002Z" fill="#E5BB67"/>
<path d="M24.2852 26.8399C30.1831 26.8399 32.1333 22.668 31.9925 20.231C31.8517 17.7939 30.8648 15.7782 25.5063 15.7782C20.1479 15.7782 18.0806 19.7624 18.0806 22.668C18.0806 25.5735 20.0071 26.8399 24.2838 26.8399H24.2852Z" fill="white"/>
<path d="M12.7895 28.6641C14.4173 27.7887 14.3331 26.3465 13.9304 25.6956C13.5277 25.0433 12.954 24.6339 11.4749 25.4292C9.99579 26.2244 10.0195 27.6313 10.4537 28.4344C10.888 29.2362 11.6091 29.2992 12.7895 28.6641Z" fill="white"/>
</g>
<defs>
<clipPath id="clip0_31_554">
<rect width="64" height="71" fill="white"/>
</clipPath>
</defs>
</svg>
