<svg width="15" height="15" viewBox="0 0 15 15" fill="none" xmlns="http://www.w3.org/2000/svg">
<g clip-path="url(#clip0_43_528)">
<path d="M10.017 0.523193C9.8267 1.82104 9.14036 3.67254 7.04061 5.53475C4.38184 7.89237 1.52245 7.87139 0.00830078 7.63332C0.187924 11.4995 3.38299 14.579 7.29825 14.579C11.2135 14.579 14.5964 11.3153 14.5964 7.28948C14.5964 4.22363 12.7011 1.6001 10.017 0.523193Z" fill="#FFCE00"/>
<path d="M7.04039 5.53438C9.14014 3.67217 9.82648 1.8211 10.0168 0.522822C9.18344 0.188833 8.27375 0.00342553 7.32119 0C7.13599 1.00882 6.56711 2.38331 5.00838 3.76595C3.29703 5.28346 1.48022 5.54851 0.22329 5.49241C0.0775342 6.06748 -0.000488281 6.66909 -0.000488281 7.28954C-0.000488281 7.40472 0.00251258 7.51947 0.00765692 7.63337C1.52138 7.87145 4.3812 7.89243 7.03996 5.5348L7.04039 5.53438Z" fill="#FFE200"/>
<path d="M5.00609 0.36696C5.0391 0.517684 5.23973 1.68451 3.91035 2.86332C2.70872 3.92909 1.39648 3.68202 1.01494 3.5784C0.665129 4.16802 0.395908 4.81073 0.223145 5.49241C1.47965 5.54894 3.29689 5.28346 5.00823 3.76595C6.56697 2.38374 7.13585 1.00925 7.32104 0C7.31332 0 7.30561 0 7.29789 0C6.49752 0 5.72716 0.129314 5.00652 0.36696H5.00609Z" fill="#FFF700"/>
<path d="M3.91103 2.8633C5.24041 1.68449 5.03935 0.517667 5.00677 0.366943C3.32029 0.923593 1.90645 2.078 1.01562 3.57881C1.39673 3.682 2.7094 3.92907 3.91103 2.86373V2.8633Z" fill="white"/>
<path d="M6.63436 1.47255C6.98632 2.57771 7.15865 4.31489 6.21167 6.607C5.01261 9.50971 3.08262 9.33672 1.78711 9.73323C3.32955 12.9078 7.01976 14.481 10.1317 12.9665C13.3353 11.4075 14.5781 7.80379 12.3926 4.06996C12.3926 4.06996 9.18509 1.29057 6.63436 1.47255Z" fill="#FFE200"/>
<path d="M6.63436 1.47255C6.98632 2.57771 7.15865 4.31489 6.21167 6.607C5.01261 9.50971 3.08262 9.33672 1.78711 9.73323C3.32955 12.9078 7.01976 14.481 10.1317 12.9665C13.3353 11.4075 14.5781 7.80379 12.3926 4.06996C12.3926 4.06996 9.18509 1.29057 6.63436 1.47255Z" fill="#FFE200"/>
<path d="M12.8679 4.98238C11.9617 2.8016 9.80919 1.26782 7.29833 1.26782C3.96908 1.26782 1.27002 3.96372 1.27002 7.28905C1.27002 8.58176 1.67771 9.77899 2.37176 10.76C3.46322 12.3027 5.26288 13.3107 7.29833 13.3107C10.6276 13.3107 13.3266 10.6148 13.3266 7.28948C13.3266 6.47206 13.1633 5.69318 12.8679 4.98238ZM7.32147 12.8847C4.74373 12.8847 2.57411 11.1449 1.92164 8.77702C1.8136 8.38437 1.74544 7.97544 1.72615 7.55325C1.72186 7.4659 1.71972 7.37769 1.71972 7.28948C1.71972 6.81333 1.77931 6.35131 1.89163 5.91028C2.02452 5.38745 2.23115 4.89375 2.49952 4.44115C3.18286 3.28931 4.26831 2.40339 5.56254 1.97605C6.11556 1.79364 6.70715 1.6943 7.32147 1.6943C7.32748 1.6943 7.33348 1.6943 7.33948 1.6943C8.07083 1.69644 8.76875 1.83903 9.40879 2.09552C10.2516 2.43379 10.9932 2.97117 11.5754 3.64857C12.4157 4.62699 12.9237 5.89871 12.9237 7.28905C12.9237 10.3793 10.4158 12.8842 7.3219 12.8842L7.32147 12.8847Z" fill="#844200"/>
<path d="M4.56669 3.4564C5.11885 3.10143 5.73617 2.82653 6.40664 2.65355C6.41307 2.65183 6.41951 2.65055 6.42636 2.64884C7.22502 2.44544 8.02711 2.40434 8.7979 2.50411C9.73289 2.62528 10.6211 2.95585 11.4014 3.45683C10.8483 2.86978 10.1702 2.40134 9.40879 2.09604C8.76918 1.83912 8.07084 1.69697 7.33948 1.69482C7.33348 1.69482 7.32748 1.69482 7.32148 1.69482C6.70716 1.69482 6.11556 1.79416 5.56254 1.97657C4.26832 2.40391 3.18286 3.28984 2.49952 4.44167C2.23116 4.89427 2.02453 5.38755 1.89163 5.9108C1.77974 6.35184 1.71973 6.81428 1.71973 7.29C1.71973 7.37864 1.72187 7.46642 1.72616 7.55377C1.73002 7.63812 1.73645 7.72162 1.74416 7.80469C1.78575 7.53493 1.84362 7.26945 1.91907 7.00997C2.34005 5.56011 3.27417 4.28795 4.56626 3.45726L4.56669 3.4564Z" fill="#B25900"/>
<path d="M2.89604 10.7185C2.88833 10.5977 2.88404 10.4774 2.88361 10.3575C2.88104 9.74948 2.96721 9.15258 3.13268 8.58309C3.55366 7.13323 4.48779 5.86107 5.77987 5.03038C6.33203 4.67541 6.94935 4.40051 7.61983 4.22752C7.62626 4.22581 7.63269 4.22453 7.63955 4.22281C8.43821 4.01942 9.24029 3.97831 10.0111 4.07808C10.8543 4.1877 11.659 4.46688 12.3813 4.88779C12.167 4.43862 11.8952 4.02242 11.5745 3.64904C11.5184 3.58352 11.4601 3.51972 11.4009 3.45678C10.6207 2.95579 9.73244 2.62566 8.79745 2.50405C8.02666 2.40385 7.22457 2.44539 6.42591 2.64878C6.41948 2.65049 6.41305 2.65178 6.40619 2.65349C5.73572 2.82648 5.1184 3.10138 4.56624 3.45635C3.27415 4.28704 2.3396 5.55963 1.91905 7.00906C1.8436 7.26897 1.78572 7.53445 1.74414 7.80378C1.77501 8.13734 1.83545 8.46234 1.92205 8.77663C2.11882 9.49128 2.45406 10.1481 2.8969 10.7181L2.89604 10.7185Z" fill="#DC7503"/>
<path d="M7.63978 4.22239C7.63335 4.2241 7.62692 4.22539 7.62006 4.2271C6.94958 4.40009 6.33226 4.67499 5.78011 5.02996C4.48802 5.86065 3.55347 7.13323 3.13292 8.58266C2.96744 9.15216 2.88127 9.74906 2.88385 10.3571C2.88427 10.477 2.88856 10.5973 2.89628 10.7181C3.92043 12.036 5.52117 12.8843 7.32126 12.8843C10.4152 12.8843 12.923 10.3794 12.923 7.2891C12.923 6.42929 12.7284 5.61487 12.3816 4.88737C11.6597 4.46646 10.8546 4.18728 10.0113 4.07766C9.24053 3.97746 8.43844 4.019 7.63978 4.22239Z" fill="#FFB000"/>
<path d="M7.24451 3.77667C7.58361 3.77667 7.91242 3.82206 8.22494 3.90599L7.96172 4.73882C7.73237 4.68016 7.4923 4.64933 7.24451 4.64933C5.6442 4.64933 4.34268 5.94718 4.34268 7.54262C4.34268 9.13806 5.64377 10.4368 7.24408 10.4368C8.8444 10.4368 10.1459 9.13892 10.1459 7.54348C10.1459 6.99924 9.99459 6.49012 9.73137 6.05422L10.539 5.70439H10.5399C10.8464 6.24862 11.0222 6.8755 11.0222 7.54262C11.0222 9.61935 9.32797 11.3086 7.24451 11.3086C5.16149 11.3086 3.46729 9.61892 3.46729 7.54262C3.46729 5.46632 5.16149 3.77667 7.24451 3.77667ZM7.24451 5.38967C7.41471 5.38967 7.57932 5.41022 7.73794 5.44748L7.56989 5.97886C7.46486 5.9566 7.35597 5.94461 7.24494 5.94461C6.37126 5.94461 5.66092 6.65326 5.66092 7.52421C5.66092 8.39515 6.37169 9.10381 7.24537 9.10381C8.11905 9.10381 8.82983 8.39515 8.82983 7.52421C8.82983 7.17052 8.71022 6.84424 8.51302 6.5809L9.03517 6.35482C9.25638 6.69137 9.38584 7.09259 9.38584 7.52421C9.38584 8.70131 8.42557 9.65917 7.24451 9.65917C6.06346 9.65917 5.10318 8.70173 5.10318 7.52421C5.10318 6.34711 6.06389 5.38967 7.24451 5.38967ZM9.39313 4.76922L10.774 5.09037L7.96644 6.28502L8.85298 3.52747L9.39313 4.76922Z" fill="#B25900"/>
<path d="M7.29871 3.25342C7.63781 3.25342 7.96662 3.29881 8.27914 3.38273L8.01592 4.21557C7.78657 4.1569 7.5465 4.12607 7.29871 4.12607C5.6984 4.12607 4.39688 5.42392 4.39688 7.01936C4.39688 8.61481 5.69797 9.91351 7.29829 9.91351C8.8986 9.91351 10.2001 8.61566 10.2001 7.02022C10.2001 6.47599 10.0488 5.96687 9.78557 5.53097L10.5932 5.18114H10.5941C10.9006 5.72537 11.0764 6.35224 11.0764 7.01936C11.0764 9.09609 9.38217 10.7853 7.29871 10.7853C5.21569 10.7853 3.52148 9.09567 3.52148 7.01936C3.52148 4.94306 5.21569 3.25342 7.29871 3.25342ZM7.29871 4.86599C7.46891 4.86599 7.63352 4.88654 7.79214 4.9238L7.62409 5.45518C7.51906 5.43292 7.41017 5.42093 7.29914 5.42093C6.42546 5.42093 5.71512 6.12958 5.71512 7.00053C5.71512 7.87147 6.42589 8.58012 7.29957 8.58012C8.17325 8.58012 8.88403 7.87147 8.88403 7.00053C8.88403 6.64684 8.76442 6.32056 8.56722 6.05722L9.08937 5.83113C9.31058 6.16769 9.44004 6.56891 9.44004 7.00053C9.44004 8.17762 8.47977 9.13549 7.29871 9.13549C6.11766 9.13549 5.15738 8.17805 5.15738 7.00053C5.15738 5.82343 6.11809 4.86599 7.29871 4.86599ZM9.44733 4.24554L10.8282 4.56668L8.02064 5.76134L8.90718 3.00378L9.44733 4.24554Z" fill="#FFE300"/>
</g>
<defs>
<clipPath id="clip0_43_528">
<rect width="14.5962" height="14.5791" fill="white"/>
</clipPath>
</defs>
</svg>
