<svg width="75" height="73" viewBox="0 0 75 73" fill="none" xmlns="http://www.w3.org/2000/svg">
<g clip-path="url(#clip0_34_918)">
<path d="M51.0861 2.61621C50.1153 9.10545 46.615 18.363 35.9063 27.674C22.3466 39.4621 7.76367 39.3572 0.0415039 38.1668C0.957582 57.4975 17.2524 72.8953 37.2203 72.8953C57.1881 72.8953 74.4406 56.5769 74.4406 36.4476C74.4406 21.1184 64.7748 8.00072 51.0861 2.61621Z" fill="#FFCE00"/>
<path d="M35.907 27.6719C46.6157 18.3609 50.1161 9.1055 51.0868 2.61411C46.8366 0.944162 42.1971 0.0171277 37.3391 0C36.3946 5.0441 33.4933 11.9166 25.5438 18.8297C16.8159 26.4173 7.55016 27.7425 1.13981 27.4621C0.39645 30.3374 -0.00146484 33.3454 -0.00146484 36.4477C-0.00146484 37.0236 0.0138396 37.5974 0.0400757 38.1669C7.76005 39.3572 22.3451 39.4621 35.9048 27.674L35.907 27.6719Z" fill="#FFE200"/>
<path d="M25.5322 1.8348C25.7005 2.58842 26.7237 8.42253 19.9439 14.3166C13.8156 19.6454 7.12318 18.4101 5.17734 17.892C3.39328 20.8401 2.02026 24.0537 1.13916 27.4621C7.54733 27.7447 16.8152 26.4173 25.5431 18.8297C33.4927 11.9187 36.3939 5.04624 37.3384 0C37.2991 0 37.2597 0 37.2204 0C33.1385 0 29.2096 0.646569 25.5344 1.8348H25.5322Z" fill="#FFF700"/>
<path d="M19.9462 14.3166C26.7261 8.42257 25.7007 2.58846 25.5345 1.83484C16.9335 4.61808 9.72291 10.3901 5.17969 17.8942C7.12335 18.4101 13.8179 19.6455 19.9462 14.3188V14.3166Z" fill="white"/>
<path d="M33.8357 7.36276C35.6307 12.8886 36.5096 21.5744 31.68 33.035C25.5648 47.5485 15.7219 46.6836 9.11475 48.6661C16.9812 64.5392 35.8013 72.4051 51.6719 64.8325C68.0105 57.0373 74.3487 39.019 63.2027 20.3498C63.2027 20.3498 46.8445 6.45285 33.8357 7.36276Z" fill="#FFE200"/>
<path d="M33.8357 7.36276C35.6307 12.8886 36.5096 21.5744 31.68 33.035C25.5648 47.5485 15.7219 46.6836 9.11475 48.6661C16.9812 64.5392 35.8013 72.4051 51.6719 64.8325C68.0105 57.0373 74.3487 39.019 63.2027 20.3498C63.2027 20.3498 46.8445 6.45285 33.8357 7.36276Z" fill="#FFE200"/>
<path d="M65.6254 24.9122C61.0035 14.0083 50.0258 6.33936 37.2204 6.33936C20.2413 6.33936 6.47607 19.8188 6.47607 36.4455C6.47607 42.9091 8.55529 48.8952 12.095 53.8001C17.6614 61.514 26.8397 66.5538 37.2204 66.5538C54.1996 66.5538 67.9648 53.0743 67.9648 36.4477C67.9648 32.3606 67.1318 28.4662 65.6254 24.9122ZM37.3385 64.4236C24.192 64.4236 13.1269 55.7248 9.79932 43.8853C9.24836 41.9221 8.90073 39.8775 8.80234 37.7665C8.78048 37.3297 8.76955 36.8887 8.76955 36.4477C8.76955 34.0669 9.07345 31.7568 9.64627 29.5516C10.324 26.9375 11.3779 24.469 12.7465 22.206C16.2315 16.4468 21.7674 12.0172 28.3679 9.8805C31.1883 8.96845 34.2055 8.47175 37.3385 8.47175C37.3691 8.47175 37.3997 8.47175 37.4303 8.47175C41.1602 8.48245 44.7196 9.19539 47.9838 10.4778C52.2822 12.1692 56.0645 14.8561 59.0336 18.2431C63.3188 23.1352 65.9096 29.4938 65.9096 36.4455C65.9096 51.8968 53.1195 64.4214 37.3407 64.4214L37.3385 64.4236Z" fill="#844200"/>
<path d="M23.289 17.2818C26.105 15.5069 29.2534 14.1324 32.6728 13.2675C32.7056 13.2589 32.7384 13.2525 32.7734 13.2439C36.8465 12.227 40.9372 12.0214 44.8682 12.5203C49.6366 13.1262 54.1668 14.779 58.1459 17.2839C55.3255 14.3487 51.8667 12.0065 47.9838 10.48C44.7217 9.19538 41.1602 8.48458 37.4303 8.47388C37.3997 8.47388 37.3691 8.47388 37.3385 8.47388C34.2054 8.47388 31.1883 8.97058 28.3679 9.88263C21.7673 12.0193 16.2315 16.4489 12.7465 22.2081C11.3778 24.4711 10.324 26.9375 9.64625 29.5537C9.07562 31.7589 8.76953 34.0712 8.76953 36.4498C8.76953 36.893 8.78046 37.3319 8.80233 37.7686C8.822 38.1904 8.8548 38.6079 8.89415 39.0232C9.10623 37.6744 9.40138 36.347 9.78618 35.0496C11.9332 27.8003 16.6972 21.4395 23.2868 17.2861L23.289 17.2818Z" fill="#B25900"/>
<path d="M14.7707 53.5925C14.7313 52.9888 14.7095 52.3872 14.7073 51.7877C14.6942 48.7475 15.1336 45.763 15.9776 42.9156C18.1245 35.6663 22.8886 29.3055 29.4782 25.152C32.2942 23.3772 35.4426 22.0027 38.862 21.1377C38.8948 21.1292 38.9276 21.1227 38.9626 21.1142C43.0357 20.0972 47.1264 19.8917 51.0574 20.3905C55.358 20.9386 59.4617 22.3345 63.1457 24.4391C62.0525 22.1932 60.6664 20.1122 59.031 18.2453C58.7446 17.9177 58.4473 17.5987 58.1456 17.284C54.1664 14.7791 49.6363 13.1284 44.8679 12.5204C40.9368 12.0194 36.8462 12.2271 32.773 13.244C32.7402 13.2526 32.7075 13.259 32.6725 13.2676C29.253 14.1325 26.1047 15.507 23.2887 17.2819C16.6991 21.4353 11.9328 27.7983 9.78802 35.0454C9.40323 36.345 9.10807 37.6724 8.896 39.019C9.05341 40.6868 9.36169 42.3118 9.80333 43.8833C10.8069 47.4565 12.5166 50.7408 14.7751 53.5904L14.7707 53.5925Z" fill="#DC7503"/>
<path d="M38.9626 21.1119C38.9298 21.1205 38.897 21.1269 38.862 21.1355C35.4426 22.0004 32.2943 23.3749 29.4782 25.1498C22.8886 29.3032 18.1224 35.6662 15.9776 42.9133C15.1337 45.7608 14.6942 48.7453 14.7073 51.7854C14.7095 52.3849 14.7314 52.9865 14.7707 53.5903C19.9939 60.1801 28.1577 64.4214 37.3382 64.4214C53.117 64.4214 65.9071 51.8968 65.9071 36.4455C65.9071 32.1464 64.9145 28.0743 63.1457 24.4368C59.4639 22.3323 55.358 20.9364 51.0574 20.3883C47.1264 19.8873 43.0358 20.095 38.9626 21.1119Z" fill="#FFB000"/>
<path d="M36.947 18.8832C38.6764 18.8832 40.3533 19.1102 41.9471 19.5298L40.6047 23.694C39.435 23.4007 38.2107 23.2465 36.947 23.2465C28.7854 23.2465 22.1476 29.7358 22.1476 37.713C22.1476 45.6902 28.7832 52.1837 36.9448 52.1837C45.1064 52.1837 51.7441 45.6945 51.7441 37.7173C51.7441 34.9961 50.9724 32.4505 49.6299 30.271L53.749 28.5218H53.7534C55.3166 31.243 56.213 34.3774 56.213 37.713C56.213 48.0966 47.5726 56.5427 36.947 56.5427C26.3235 56.5427 17.6831 48.0945 17.6831 37.713C17.6831 27.3315 26.3235 18.8832 36.947 18.8832ZM36.947 26.9482C37.815 26.9482 38.6545 27.051 39.4635 27.2373L38.6064 29.8942C38.0708 29.7829 37.5154 29.7229 36.9492 29.7229C32.4934 29.7229 28.8706 33.2662 28.8706 37.6209C28.8706 41.9756 32.4956 45.5189 36.9513 45.5189C41.4071 45.5189 45.0321 41.9756 45.0321 37.6209C45.0321 35.8525 44.4221 34.2211 43.4164 32.9044L46.0793 31.774C47.2075 33.4567 47.8678 35.4628 47.8678 37.6209C47.8678 43.5064 42.9703 48.2957 36.947 48.2957C30.9236 48.2957 26.0262 43.5085 26.0262 37.6209C26.0262 31.7354 30.9258 26.9482 36.947 26.9482ZM47.9049 23.846L54.9471 25.4517L40.6288 31.425L45.1501 17.6372L47.9049 23.846Z" fill="#B25900"/>
<path d="M37.2224 16.267C38.9518 16.267 40.6287 16.4939 42.2225 16.9135L40.8801 21.0777C39.7104 20.7844 38.4861 20.6302 37.2224 20.6302C29.0607 20.6302 22.423 27.1195 22.423 35.0967C22.423 43.0739 29.0586 49.5674 37.2202 49.5674C45.3818 49.5674 52.0195 43.0782 52.0195 35.101C52.0195 32.3798 51.2478 29.8342 49.9053 27.6547L54.0244 25.9056H54.0288C55.592 28.6267 56.4884 31.7611 56.4884 35.0967C56.4884 45.4804 47.848 53.9264 37.2224 53.9264C26.5989 53.9264 17.9585 45.4782 17.9585 35.0967C17.9585 24.7152 26.5989 16.267 37.2224 16.267ZM37.2224 24.3298C38.0903 24.3298 38.9299 24.4326 39.7388 24.6189L38.8818 27.2758C38.3461 27.1645 37.7908 27.1045 37.2246 27.1045C32.7688 27.1045 29.146 30.6478 29.146 35.0025C29.146 39.3572 32.771 42.9005 37.2267 42.9005C41.6825 42.9005 45.3075 39.3572 45.3075 35.0025C45.3075 33.2341 44.6975 31.6027 43.6918 30.286L46.3547 29.1555C47.4829 30.8383 48.1432 32.8444 48.1432 35.0025C48.1432 40.888 43.2457 45.6773 37.2224 45.6773C31.199 45.6773 26.3016 40.8901 26.3016 35.0025C26.3016 29.117 31.2012 24.3298 37.2224 24.3298ZM48.1803 21.2276L55.2225 22.8333L40.9042 28.8066L45.4255 15.0188L48.1803 21.2276Z" fill="#FFE300"/>
</g>
<defs>
<clipPath id="clip0_34_918">
<rect width="74.4406" height="72.8953" fill="white"/>
</clipPath>
</defs>
</svg>
