<svg width="15" height="17" viewBox="0 0 15 17" fill="none" xmlns="http://www.w3.org/2000/svg">
<g clip-path="url(#clip0_43_541)">
<path d="M14.4328 6.44185C14.0223 5.42566 13.3912 4.48331 12.5384 3.69587C11.0546 2.32555 9.17975 1.67449 7.3243 1.71973C6.25809 1.74581 5.19836 2.00096 4.22283 2.48329C3.47491 2.85313 2.77696 3.3562 2.1632 3.9903C2.08887 4.06728 2.01485 4.14489 1.94299 4.22533C-0.839267 7.35246 -0.60641 12.1852 2.46268 15.0198C5.53207 17.8544 10.2756 17.6171 13.0578 14.4903C14.0901 13.3302 14.7063 11.9354 14.9176 10.4947C14.9805 10.0664 15.0067 9.63403 14.9981 9.2026C14.9793 8.26025 14.7884 7.32324 14.4321 6.44185H14.4328Z" fill="#A81C1C"/>
<path d="M4.09064 11.618C2.00788 9.69468 1.43175 6.71021 2.43597 4.20398C2.36843 4.27374 2.30119 4.34444 2.2358 4.41796C-0.294472 7.26135 -0.0828959 11.6567 2.7083 14.2342C5.4995 16.8121 9.81337 16.5962 12.3436 13.7525C13.2822 12.6974 13.8429 11.4289 14.035 10.1189C13.8201 10.4831 13.5681 10.8318 13.2772 11.1586C10.8648 13.8701 6.75169 14.0756 4.09064 11.6177V11.618Z" fill="#1E1E1E"/>
<path d="M13.9007 9.1907C11.7511 11.6067 8.08611 11.7899 5.71498 9.59981C3.81449 7.84457 3.32318 5.09859 4.30889 2.83337C3.62883 3.1699 2.99379 3.6271 2.43586 4.20369C1.43195 6.70992 2.00808 9.69439 4.09053 11.6177C6.75188 14.0756 10.865 13.8698 13.2771 11.1587C13.568 10.8319 13.8196 10.4831 14.0349 10.1189C14.092 9.72927 14.116 9.33618 14.108 8.94404C14.0414 9.02762 13.9726 9.10994 13.9007 9.1907Z" fill="#494949"/>
<path d="M7.97098 4.28224C7.49601 3.84327 7.30202 3.03289 7.30202 3.03289H6.59759C5.94836 4.54493 6.2793 6.37244 7.54598 7.54197C9.1328 9.0075 11.585 8.88495 13.0235 7.26828C13.2533 7.00999 13.443 6.72908 13.5935 6.4334C13.22 5.50927 12.6463 4.65239 11.8709 3.93628C10.7437 2.89526 9.36843 2.31238 7.96235 2.17224L7.97098 2.50343C7.97098 2.50343 8.44595 4.72152 7.97098 4.28255V4.28224Z" fill="#808080"/>
<path d="M13.5934 6.43332C13.4429 6.729 13.2532 7.00991 13.0234 7.2682C11.585 8.88487 9.13272 9.00742 7.5459 7.54189C6.27922 6.37204 5.9486 4.54485 6.59751 3.03281H7.30194C7.30194 3.03281 7.49594 3.84319 7.97091 4.28216C8.44587 4.72113 7.97091 2.50304 7.97091 2.50304L7.96227 2.17185C7.685 2.1442 7.40681 2.13194 7.12892 2.13886C7.0148 2.14168 6.90069 2.14797 6.78657 2.15645C5.93318 2.22055 5.09088 2.44616 4.30842 2.83328C3.32271 5.09851 3.81402 7.8448 5.71451 9.59972C8.08595 11.7898 11.7509 11.6067 13.9003 9.19061C13.9721 9.10985 14.0409 9.02753 14.1075 8.94395C14.0903 8.08706 13.9169 7.2349 13.5931 6.433L13.5934 6.43332Z" fill="#5B5B5B"/>
<path d="M12.8377 7.46313L12.5953 6.69423C12.5953 6.69423 11.2993 6.57137 10.6803 6.33413C10.0613 6.0969 11.5146 5.35156 11.5146 5.35156L13.2285 5.66735C13.2285 5.66735 13.6146 6.42337 13.7343 6.81301C13.854 7.20264 12.8377 7.51435 12.8377 7.51435V7.46344V7.46313Z" fill="#5B5B5B"/>
<path d="M12.5062 1.2135C11.2099 0.240667 9.82507 0.00814359 8.99635 0.268319C8.81746 0.324564 8.67929 0.445225 8.59016 0.613019L8.58831 0.61679C8.58553 0.622446 8.58275 0.628102 8.57998 0.633758L7.58532 2.70479C7.58532 2.70479 7.32101 3.6817 9.0864 5.14535C10.8518 6.60899 12.7813 6.1166 12.7813 6.1166L13.8981 4.17409C14.3684 3.71533 14.1254 2.42828 12.5062 1.21318V1.2135Z" fill="#A81C1C"/>
<path d="M13.8981 4.50248L12.7813 6.44499C12.7813 6.44499 10.8518 6.93738 9.0864 5.47373C7.32101 4.01009 7.58532 3.03318 7.58532 3.03318L8.59016 0.941406L13.8984 4.50279L13.8981 4.50248Z" fill="#353535"/>
<path d="M10.1253 3.74421C8.4626 2.55331 8.28988 1.07773 8.90456 0.633423C8.17361 0.984094 8.27415 2.55237 10.0232 3.80486C11.7303 5.02749 13.2314 4.97376 13.7986 4.5835C13.1679 4.915 11.7389 4.89992 10.1253 3.74421Z" fill="#808080"/>
<path d="M12.5061 1.5416C11.2099 0.568771 9.82505 0.336561 8.99633 0.596736C8.96425 0.606792 8.93403 0.619675 8.90442 0.633815C8.28974 1.07812 8.46245 2.55371 10.1251 3.7446C11.7388 4.90031 13.1677 4.91508 13.7984 4.58389C13.8357 4.55812 13.8691 4.5311 13.898 4.50282C14.3684 4.04406 14.1254 2.75701 12.5061 1.54191V1.5416Z" fill="#494949"/>
<path d="M12.068 1.94729C11.2402 1.32607 10.3557 1.17776 9.82672 1.34398C9.6574 1.39708 9.54482 1.54131 9.50781 1.73959C9.52848 1.72922 9.55007 1.71979 9.5732 1.71256C10.1024 1.54634 10.9867 1.69497 11.8145 2.31587C12.6108 2.91352 12.8844 3.53725 12.8317 3.92688C12.8813 3.90049 12.9236 3.87063 12.9569 3.83827C13.2573 3.5451 13.1021 2.72341 12.068 1.94729Z" fill="#686868"/>
<path d="M11.8145 2.31582C10.9867 1.6946 10.1022 1.54629 9.57323 1.71251C9.55041 1.71974 9.52881 1.72917 9.50784 1.73953C9.4295 2.16059 9.69259 2.82705 10.4824 3.39297C11.516 4.13327 12.431 4.1405 12.832 3.92683C12.8847 3.53719 12.6112 2.91346 11.8148 2.31582H11.8145Z" fill="#1E1E1E"/>
<path d="M10.2301 2.39496C10.2301 2.39496 10.6178 3.20439 11.2315 3.39732C11.8453 3.59026 12.0368 3.47996 12.0368 3.47996C12.0368 3.47996 12.1944 3.12175 12.1584 3.0322C12.1584 3.0322 12.4313 3.00863 12.5534 2.88703C12.6759 2.76543 12.7228 2.66456 12.7228 2.66456C12.7228 2.66456 12.9797 2.77045 13.3094 2.62057C13.6391 2.47069 13.6018 2.2677 13.6018 2.2677C13.6018 2.2677 14.0431 2.31735 14.3854 2.09016C14.7278 1.86298 14.7244 1.36651 14.5227 1.16038C14.321 0.954255 13.9472 1.01364 13.9472 1.01364C13.9472 1.01364 14.1692 0.594785 14.0499 0.246628C13.9305 -0.101529 13.2591 -0.150862 13.3159 0.558336C13.3159 0.558336 12.8412 0.375459 12.6167 0.559278C12.3918 0.743098 12.39 0.916862 12.39 0.916862C12.39 0.916862 11.9634 0.755038 11.7111 0.988819C11.4589 1.2226 11.5304 1.40202 11.5304 1.40202C11.5304 1.40202 11.1255 1.29644 10.958 1.48309C10.7905 1.66974 10.7476 1.97987 10.7476 1.97987C10.7476 1.97987 10.2338 2.04649 10.2295 2.39433L10.2301 2.39496Z" fill="#CF8B38"/>
<path d="M10.3833 2.35479C10.3833 2.35479 10.8558 2.99706 11.2793 3.12872C11.7027 3.26038 11.9211 2.93422 11.7012 2.71175C11.4813 2.48897 10.7636 1.87561 10.3833 2.35479Z" fill="#E5BB67"/>
<path d="M10.9209 1.98433C10.9209 1.98433 11.3777 1.85392 11.8745 2.39973C12.0707 2.61528 12.2622 2.46634 12.2533 2.20239C12.2403 1.82156 11.1118 1.08628 10.9209 1.98433Z" fill="#E5BB67"/>
<path d="M11.6807 1.30023C11.6807 1.30023 12.1963 1.25373 12.6528 2.00189C12.8539 2.3315 13.1941 2.05688 13.1851 1.79293C13.1722 1.41209 11.9271 0.611143 11.6807 1.30023Z" fill="#E5BB67"/>
<path d="M12.5322 0.860921C12.5322 0.860921 13.1451 0.908997 13.5312 1.58646C13.6691 1.82841 14.0595 1.75048 14.033 1.44977C13.9997 1.06988 12.8076 0.281811 12.5322 0.860607V0.860921Z" fill="#E5BB67"/>
<path d="M11.232 3.39731C11.8211 3.6644 12.0373 3.47995 12.0373 3.47995C12.0373 3.47995 12.1949 3.12174 12.1588 3.03218C12.1588 3.03218 12.4318 3.00862 12.5539 2.88701C12.6764 2.76541 12.7232 2.66454 12.7232 2.66454C12.7232 2.66454 12.9802 2.77044 13.3099 2.62055C13.6396 2.47067 13.6022 2.26768 13.6022 2.26768C13.6022 2.26768 14.0436 2.31733 14.3859 2.09015C14.7283 1.86297 14.7249 1.3665 14.5232 1.16037C14.4772 1.11355 14.4226 1.08087 14.3653 1.05762C14.7076 1.28291 14.4273 1.88465 14.0044 1.98268C13.7706 2.03673 13.415 2.00405 13.415 2.00405C13.415 2.00405 13.4197 2.29062 13.1362 2.41003C12.8531 2.52943 12.4512 2.01976 12.4512 2.01976C12.4512 2.01976 12.5789 2.47036 12.409 2.6966C12.239 2.92315 11.864 2.69 11.864 2.69C11.864 2.69 11.9892 3.14499 11.959 3.21915C11.9288 3.29299 11.7119 3.40328 11.137 3.22197C10.5621 3.04067 10.2368 2.33241 10.2365 2.3321C10.2324 2.35189 10.23 2.37263 10.23 2.39431C10.23 2.39431 10.2796 2.96525 11.2314 3.39668L11.232 3.39731Z" fill="#B7742D"/>
<path d="M13.7878 0.617743C13.9282 0.519706 13.8717 0.151752 13.6731 0.113417C13.4745 0.0750825 13.353 0.421668 13.418 0.541073C13.4828 0.660162 13.6827 0.69127 13.7878 0.617743Z" fill="#E5BB67"/>
<path d="M5.69199 6.4264C7.07433 6.4264 7.53141 5.42749 7.49841 4.84398C7.46541 4.26048 7.23409 3.77783 5.97821 3.77783C4.72232 3.77783 4.23779 4.73181 4.23779 5.42749C4.23779 6.12318 4.68932 6.4264 5.69168 6.4264H5.69199Z" fill="white"/>
<path d="M2.99766 6.86327C3.37918 6.65369 3.35944 6.30836 3.26506 6.1525C3.17068 5.99634 3.03621 5.8983 2.68955 6.08872C2.34288 6.27914 2.34844 6.61598 2.45021 6.80828C2.55199 7.00027 2.72101 7.01536 2.99766 6.86327Z" fill="white"/>
</g>
<defs>
<clipPath id="clip0_43_541">
<rect width="15" height="17" fill="white"/>
</clipPath>
</defs>
</svg>
