<svg width="16" height="16" viewBox="0 0 16 16" fill="none" xmlns="http://www.w3.org/2000/svg">
<path d="M12.1465 3.14648C12.3418 2.95117 12.6582 2.95118 12.8535 3.14648C13.0488 3.3418 13.0488 3.6582 12.8535 3.85352L11.5605 5.14648L12.207 5.79297C12.5976 6.18334 12.5977 6.81666 12.207 7.20703L11.707 7.70703C11.6676 7.74643 11.6239 7.77908 11.5801 7.81055C11.8476 8.48986 12 9.22684 12 10C12 13.3083 9.30834 16 6 16C2.69166 16 8.53496e-06 13.3083 0 10C0 6.69166 2.69166 4 6 4C6.77316 4 7.51011 4.15239 8.18945 4.41992C8.22089 4.37608 8.25357 4.33237 8.29297 4.29297L8.79297 3.79297C9.18309 3.40234 9.81691 3.40234 10.207 3.79297L10.8535 4.43945L12.1465 3.14648ZM6 6C3.79444 6 2 7.79444 2 10C2.00001 10.2761 2.22388 10.5 2.5 10.5C2.77612 10.5 2.99999 10.2761 3 10C3 8.34572 4.34569 7 6 7C6.27612 7 6.49999 6.77612 6.5 6.5C6.5 6.22388 6.27612 6 6 6ZM13.6377 4.65527C13.833 4.46027 14.1495 4.46014 14.3447 4.65527L14.8447 5.15527C15.04 5.3505 15.0398 5.66697 14.8447 5.8623C14.7471 5.95992 14.6191 6.00874 14.4912 6.00879C14.3633 6.00879 14.2354 5.95996 14.1377 5.8623L13.6377 5.3623C13.4425 5.16699 13.4424 4.85056 13.6377 4.65527ZM15.5 3.01855C15.7764 3.01855 16 3.24243 16 3.51855C15.9999 3.79457 15.7763 4.01855 15.5 4.01855H14.5C14.2237 4.01855 14.0001 3.79457 14 3.51855C14 3.24243 14.2236 3.01855 14.5 3.01855H15.5ZM10.1377 1.15527C10.333 0.96027 10.6495 0.96014 10.8447 1.15527L11.3447 1.65527C11.5399 1.85049 11.5398 2.16697 11.3447 2.3623C11.2471 2.45991 11.1191 2.50874 10.9912 2.50879C10.8633 2.50879 10.7354 2.45996 10.6377 2.3623L10.1377 1.8623C9.94247 1.66699 9.94241 1.35056 10.1377 1.15527ZM14.6553 0.655273C14.8505 0.460131 15.167 0.460279 15.3623 0.655273C15.5576 0.850562 15.5575 1.16699 15.3623 1.3623L14.3623 2.3623C14.2646 2.45996 14.1367 2.50879 14.0088 2.50879C13.8809 2.50874 13.7529 2.45991 13.6553 2.3623C13.4602 2.16697 13.46 1.85049 13.6553 1.65527L14.6553 0.655273ZM12.5 0C12.7764 0 13 0.223875 13 0.5V1.5C13 1.77612 12.7764 2 12.5 2C12.2236 2 12 1.77612 12 1.5V0.5C12 0.223875 12.2236 0 12.5 0Z" fill="#383838"/>
</svg>
