<svg width="20" height="20" viewBox="0 0 20 20" fill="none" xmlns="http://www.w3.org/2000/svg">
<path d="M15.1836 3.93359C15.4277 3.68945 15.8232 3.68945 16.0674 3.93359C16.311 4.17777 16.3114 4.5734 16.0674 4.81738L14.8164 6.06641L14.4502 6.43262L15.2588 7.24121C15.7471 7.72918 15.7471 8.52082 15.2588 9.00879L14.6338 9.63379C14.5846 9.68298 14.5303 9.72341 14.4756 9.7627C14.81 10.6118 15 11.5336 15 12.5C15 16.6354 11.6354 20 7.5 20C3.36458 20 1.06687e-05 16.6354 0 12.5C0 8.36457 3.36457 5 7.5 5C8.46644 5 9.38813 5.19 10.2373 5.52441C10.2766 5.46968 10.317 5.41541 10.3662 5.36621L10.9912 4.74121C11.4789 4.25293 12.2711 4.25293 12.7588 4.74121L13.5674 5.5498L15.1836 3.93359ZM7.5 7.5C4.74305 7.5 2.5 9.74305 2.5 12.5C2.50001 12.8451 2.77985 13.125 3.125 13.125C3.47015 13.125 3.74999 12.8451 3.75 12.5C3.75 10.4321 5.43211 8.75 7.5 8.75C7.84515 8.75 8.12499 8.47015 8.125 8.125C8.125 7.77984 7.84516 7.5 7.5 7.5ZM17.0469 5.81934C17.291 5.57542 17.6866 5.57527 17.9307 5.81934L18.5557 6.44434C18.7997 6.68841 18.7996 7.08397 18.5557 7.32812C18.4336 7.4502 18.2732 7.51172 18.1133 7.51172C17.9535 7.51165 17.7939 7.45012 17.6719 7.32812L17.0469 6.70312C16.8027 6.45898 16.8027 6.06348 17.0469 5.81934ZM19.375 3.77246C19.7203 3.77246 19.9998 4.0525 20 4.39746C20 4.74262 19.7205 5.02246 19.375 5.02246H18.125C17.7795 5.02246 17.5 4.74262 17.5 4.39746C17.5002 4.0525 17.7797 3.77246 18.125 3.77246H19.375ZM12.6719 1.44434C12.916 1.20042 13.3116 1.20027 13.5557 1.44434L14.1807 2.06934C14.4247 2.3134 14.4246 2.70897 14.1807 2.95312C14.0586 3.0752 13.8982 3.13672 13.7383 3.13672C13.5785 3.13666 13.4189 3.07512 13.2969 2.95312L12.6719 2.32812C12.4277 2.08398 12.4277 1.68848 12.6719 1.44434ZM18.3193 0.819336C18.5634 0.575275 18.959 0.575436 19.2031 0.819336C19.4473 1.06348 19.4473 1.45898 19.2031 1.70312L17.9531 2.95312C17.8311 3.07512 17.6715 3.13666 17.5117 3.13672C17.3518 3.13672 17.1914 3.0752 17.0693 2.95312C16.8254 2.70898 16.8253 2.31341 17.0693 2.06934L18.3193 0.819336ZM15.625 0C15.9705 0 16.25 0.279844 16.25 0.625V1.875C16.25 2.22016 15.9705 2.5 15.625 2.5C15.2795 2.5 15 2.22016 15 1.875V0.625C15 0.279844 15.2795 0 15.625 0Z" fill="#FECC01"/>
</svg>
