<svg width="9" height="16" viewBox="0 0 9 16" fill="none" xmlns="http://www.w3.org/2000/svg">
<path d="M6.79762 0.391799L0.379684 7.05298C0.259376 7.17682 0.163882 7.32417 0.0987158 7.48652C0.0335493 7.64886 0 7.82299 0 7.99886C0 8.17473 0.0335493 8.34886 0.0987158 8.51121C0.163882 8.67356 0.259376 8.8209 0.379684 8.94475L6.79762 15.6059C6.91695 15.7308 7.05891 15.8299 7.21533 15.8975C7.37175 15.9652 7.53952 16 7.70897 16C7.87842 16 8.04619 15.9652 8.20261 15.8975C8.35902 15.8299 8.50099 15.7308 8.62032 15.6059C8.74063 15.4821 8.83612 15.3347 8.90128 15.1724C8.96645 15.01 9 14.8359 9 14.66C9 14.4842 8.96645 14.31 8.90128 14.1477C8.83612 13.9853 8.74063 13.838 8.62032 13.7142L3.10089 7.99886L8.62032 2.28357C8.86202 2.03271 8.99781 1.69246 8.99781 1.33769C8.99781 1.16202 8.96447 0.988072 8.8997 0.825776C8.83493 0.663481 8.74 0.516015 8.62032 0.391799C8.37861 0.140934 8.05079 0 7.70897 0C7.53972 0 7.37212 0.0346007 7.21575 0.101826C7.05938 0.169051 6.9173 0.267584 6.79762 0.391799Z" fill="white"/>
</svg>
